<svg version="1.1" id="Layer_1" xmlns="http://www.w3.org/2000/svg" xmlns:xlink="http://www.w3.org/1999/xlink" x="0px" y="0px"
	 width="100%" viewBox="0 0 416 432" enable-background="new 0 0 416 432" xml:space="preserve">
<path fill="#000000" opacity="1.000000" stroke="none" 
	d="
M116.642769,227.783539 
	C114.589653,181.469925 147.702850,141.109131 190.696915,131.237961 
	C193.931564,130.495300 197.236374,129.931580 200.539810,129.646103 
	C205.082413,129.253555 207.097290,127.560890 207.032242,122.472321 
	C206.772430,102.145264 206.989868,81.812080 207.038269,61.481186 
	C207.041840,59.982063 206.850479,58.422264 207.190582,56.995785 
	C208.099976,53.181690 207.006439,50.522118 203.989136,47.838169 
	C198.299805,42.777405 198.161682,33.540016 203.171219,28.611059 
	C208.002365,23.857586 216.276260,23.887049 221.293350,28.675585 
	C226.783508,33.915642 226.774643,42.241714 220.785370,47.741562 
	C218.157883,50.154343 217.307068,52.596741 217.322205,56.000072 
	C217.419968,77.997528 217.504074,99.997711 217.221329,121.992218 
	C217.155685,127.097771 218.866531,128.966766 223.809296,129.586823 
	C261.220734,134.279907 287.008057,154.849945 301.461182,189.056595 
	C311.172546,212.040665 310.615967,235.806534 301.735046,259.236542 
	C301.037323,261.077179 300.307861,262.905792 299.367706,265.318573 
	C307.478455,267.628265 315.193695,266.529938 322.851471,265.685730 
	C324.953278,265.454010 324.756104,263.226379 324.772705,261.582397 
	C324.824890,256.416595 324.795532,251.250031 324.840393,246.084122 
	C324.919342,236.991592 327.599731,234.100372 336.811249,234.009827 
	C343.964844,233.939529 351.124908,234.622223 358.280029,234.584457 
	C366.187897,234.542725 374.027405,235.261627 381.847931,231.994751 
	C388.535034,229.201324 394.941223,233.021744 397.134033,239.342941 
	C399.161224,245.186890 396.387817,251.505890 390.550476,254.343155 
	C385.007019,257.037598 379.125977,255.063660 375.339813,248.776657 
	C373.975403,246.511093 372.354553,245.981354 370.044891,245.999786 
	C360.379761,246.076950 350.710846,246.258789 341.050201,246.062683 
	C336.753235,245.975464 335.438904,247.864487 335.600983,251.749710 
	C335.823212,257.075317 336.018616,262.407379 336.005554,267.736145 
	C335.988922,274.514526 333.418243,277.149628 326.633850,277.240692 
	C316.969788,277.370483 307.301544,277.399200 297.638245,277.256195 
	C294.339142,277.207428 291.988495,278.147797 290.024628,280.907135 
	C273.571167,304.025146 250.972687,316.531036 222.888321,319.324585 
	C219.157745,319.695679 217.506119,321.530914 217.497299,325.088745 
	C217.441071,347.752777 217.419434,370.416840 217.330643,393.080688 
	C217.322281,395.212189 218.483398,396.328705 219.975922,397.543701 
	C226.431107,402.798523 227.250977,411.195038 221.969147,416.844025 
	C217.119476,422.030823 208.283859,422.426117 203.481461,417.671143 
	C197.887863,412.132782 198.142761,403.141815 204.264328,397.781281 
	C206.087692,396.184570 206.853409,394.503387 206.855698,392.185120 
	C206.877853,369.687408 206.877075,347.189270 207.039993,324.692413 
	C207.073105,320.117767 204.154694,319.686401 200.855286,319.343658 
	C180.782867,317.258606 163.414474,309.128754 148.477112,295.712646 
	C143.763306,291.478882 139.431900,286.820526 135.751663,281.650665 
	C133.516830,278.511261 130.882645,277.120483 126.937668,277.217560 
	C117.444458,277.451202 107.940636,277.367126 98.442749,277.262329 
	C90.834641,277.178375 88.721687,274.951202 88.672569,267.287811 
	C88.637337,261.788727 88.582443,256.285400 88.756989,250.790939 
	C88.864212,247.415466 87.659660,245.948227 84.150734,246.008926 
	C73.987587,246.184784 63.821014,246.176300 53.655685,246.203476 
	C51.335915,246.209671 49.659512,246.941696 48.207947,248.974838 
	C43.637791,255.376251 37.863785,257.037415 32.393764,253.849335 
	C27.164240,250.801468 24.982719,243.308289 27.649508,237.553574 
	C30.040661,232.393661 37.027668,229.426636 43.111053,232.215485 
	C48.595844,234.729874 54.061962,234.864258 59.668194,234.547318 
	C76.652718,233.587204 93.643127,234.346741 110.628784,234.176422 
	C114.963829,234.132950 117.451561,233.094788 116.642769,227.783539 
M246.109802,155.383530 
	C236.887680,150.776520 227.134644,148.454697 216.823959,147.920242 
	C168.215912,145.400543 129.484634,185.726028 136.644989,236.784393 
	C142.749420,280.313263 186.545944,308.910950 230.089386,299.028412 
	C271.455017,289.640106 297.224792,248.858627 287.874725,207.530914 
	C282.480225,183.686996 268.113037,166.927460 246.109802,155.383530 
M99.483177,263.820679 
	C100.016541,264.408356 100.510590,265.464447 101.089203,265.513031 
	C108.958458,266.173553 116.825005,266.150177 124.811958,265.666870 
	C120.794991,247.340286 118.550980,245.388733 103.731934,246.077957 
	C100.609917,246.223145 99.160629,247.197678 99.303421,250.481903 
	C99.483856,254.631424 99.368416,258.793823 99.483177,263.820679 
z"/>
<path fill="#000000" opacity="1.000000" stroke="none" 
	d="
M109.726845,173.471954 
	C107.814568,162.777664 112.226906,155.491501 120.238403,149.553589 
	C124.501801,146.393661 128.316803,142.605194 132.187027,138.944839 
	C136.218842,135.131638 138.045242,122.674484 135.412155,117.843521 
	C134.123749,115.479660 131.804840,115.104584 129.412170,114.983086 
	C125.256073,114.772026 121.098839,114.583389 116.942772,114.371796 
	C113.177193,114.180092 111.646637,111.958519 111.740112,108.432266 
	C111.837372,104.763237 114.142532,103.645660 117.426117,103.688622 
	C120.591232,103.730042 123.761337,103.589348 126.922058,103.712875 
	C130.183090,103.840324 133.000504,103.215034 135.783157,101.202805 
	C140.277649,97.952690 144.625610,98.475021 147.948257,102.014511 
	C151.074905,105.345207 151.366592,110.335213 148.672806,114.409142 
	C145.861526,118.660751 145.590897,120.888466 147.266998,125.980942 
	C155.343704,124.470314 160.603394,118.279694 160.608139,110.279411 
	C160.610596,106.113968 160.508911,101.945045 160.646515,97.784050 
	C160.786194,93.560089 160.322845,89.719383 157.898056,85.929596 
	C154.931824,81.293549 156.016830,76.287811 159.724243,73.311958 
	C163.436676,70.332085 168.340866,70.305611 171.631775,73.247658 
	C175.000168,76.258987 175.776794,81.633423 173.021469,86.047127 
	C171.415680,88.619408 170.969482,91.224014 171.006760,94.104034 
	C171.097366,101.100922 171.006454,108.102043 171.209335,115.095055 
	C171.388443,121.268456 169.216599,125.905060 163.915939,129.387711 
	C149.813217,138.653534 137.327942,149.943054 124.827980,161.205307 
	C122.299446,163.483475 120.859016,165.957016 121.148285,169.467941 
	C121.478363,173.474258 121.322426,177.483505 119.456131,181.191940 
	C116.544037,186.978455 111.999138,190.045837 105.356812,189.333817 
	C100.863892,188.852219 98.998482,190.542419 99.239250,195.247971 
	C99.553818,201.395966 99.399979,207.575989 99.250839,213.737473 
	C99.085876,220.552429 96.209404,223.376953 89.334610,223.381088 
	C76.850075,223.388580 64.364067,224.296768 51.880302,223.360519 
	C51.382645,223.323196 50.820641,223.484955 50.390251,223.307480 
	C42.934853,220.233078 35.857677,216.212402 30.397215,210.420822 
	C26.921637,206.734512 28.231600,200.769012 31.802799,197.181549 
	C34.973907,193.995972 38.790768,192.777130 43.215538,194.496353 
	C48.005348,196.357391 50.648598,200.223877 50.188076,205.886200 
	C49.824829,210.352448 51.465458,211.850266 55.815884,211.746429 
	C64.641708,211.535751 73.476006,211.704285 82.306488,211.656723 
	C88.310036,211.624374 88.679382,211.230286 88.717659,204.983170 
	C88.755424,198.818649 88.634361,192.652435 88.729248,186.489212 
	C88.821663,180.487595 90.545166,178.792160 96.458755,178.599655 
	C99.119476,178.513031 101.790390,178.644104 104.444687,178.481079 
	C107.282471,178.306778 109.827332,177.582718 109.726845,173.471954 
z"/>
<path fill="#000000" opacity="1.000000" stroke="none" 
	d="
M374.298309,208.852005 
	C372.511475,201.581497 374.117920,197.211853 379.419250,194.616699 
	C383.958984,192.394363 390.131256,193.996750 393.291748,198.218109 
	C396.460297,202.450256 396.059631,208.389389 392.352997,212.439911 
	C391.204010,213.695511 389.897888,214.843643 388.238037,215.133347 
	C384.420105,215.799683 381.556091,217.798325 379.120667,220.717926 
	C377.273254,222.932571 374.653900,223.366821 371.872131,223.356796 
	C359.548584,223.312363 347.224518,223.380219 334.901184,223.310532 
	C327.782715,223.270294 325.257660,220.979630 324.934937,213.813171 
	C324.643036,207.330643 324.704529,200.823761 324.852783,194.333160 
	C324.935608,190.705933 323.595001,188.959656 319.899811,189.389801 
	C307.336456,190.852234 302.750854,182.531281 303.749908,172.289795 
	C304.288574,166.767517 302.112000,163.169754 298.103424,159.406631 
	C285.810150,147.866104 273.001526,137.022476 259.045563,127.566833 
	C255.228897,124.980896 253.488556,121.686653 253.655273,117.069183 
	C253.871490,111.080742 253.709747,105.079651 253.798645,99.085304 
	C253.872574,94.100426 253.938553,89.340729 251.130600,84.678200 
	C248.611740,80.495735 250.414749,75.034767 253.970535,72.635201 
	C257.807068,70.046173 262.984283,70.389565 265.933502,73.428680 
	C268.924347,76.510712 269.328491,82.454979 266.352020,86.324783 
	C264.679626,88.499168 264.218689,90.702560 264.230103,93.259186 
	C264.256134,99.087448 264.430511,104.929283 264.100525,110.740387 
	C263.836029,115.398232 265.337311,118.744820 269.330292,121.173126 
	C271.862183,122.712898 274.183594,124.598747 276.955261,126.584320 
	C279.176727,122.457787 279.572540,118.906006 276.880615,115.245918 
	C273.089935,110.091934 273.001495,106.142059 276.449219,102.256142 
	C279.617615,98.685051 284.795868,98.189323 289.579956,101.614555 
	C294.808136,105.357765 300.548462,103.120789 306.033691,103.668915 
	C310.324188,104.097656 311.987854,105.965820 311.230286,110.166588 
	C310.751099,112.823486 309.193878,114.255798 306.478821,114.407333 
	C302.490936,114.629913 298.505096,115.005371 294.515472,115.049461 
	C290.206024,115.097099 288.611847,116.896126 288.117889,121.350250 
	C287.049835,130.982178 289.602539,138.579941 297.856018,144.083344 
	C300.047302,145.544495 301.669586,147.843765 303.823242,149.379364 
	C311.751495,155.032394 316.182739,162.114578 314.388397,172.292847 
	C313.555115,177.019409 315.959747,178.739426 320.716492,178.683350 
	C335.481384,178.509262 335.792938,178.892136 335.906952,193.570709 
	C335.940521,197.891510 335.611755,202.217316 335.382477,206.537292 
	C335.199463,209.985229 336.375702,211.783951 340.215607,211.720871 
	C349.539001,211.567688 358.867035,211.722443 368.192810,211.673248 
	C370.488312,211.661118 372.951416,211.757339 374.298309,208.852005 
z"/>
<path fill="#000000" opacity="1.000000" stroke="none" 
	d="
M146.754959,324.759247 
	C145.848801,329.095123 146.125656,332.759308 148.812576,336.337158 
	C151.610336,340.062653 150.795822,344.868622 147.566330,348.193542 
	C144.159576,351.700897 140.224686,352.199402 136.339142,349.351776 
	C132.695221,346.681244 128.965836,346.045532 124.596512,346.800903 
	C122.031525,347.244324 119.292519,346.901642 116.655899,346.654877 
	C113.291039,346.339996 111.565788,344.327606 111.814407,340.926666 
	C112.053940,337.649902 113.749535,335.685425 117.232849,335.682617 
	C121.227707,335.679382 125.223549,335.757568 129.217194,335.692352 
	C134.691315,335.603027 136.086426,333.877075 136.680618,328.598175 
	C137.627136,320.189209 135.546356,313.487549 128.498260,308.107300 
	C123.240883,304.093994 118.749924,299.059875 114.027397,294.369843 
	C111.673042,292.031677 109.322571,289.602325 109.656822,285.795929 
	C109.868866,283.381195 111.094582,281.736328 113.183090,280.752686 
	C115.442108,279.688751 117.545631,280.293152 119.010780,282.171143 
	C131.602188,298.310425 148.211838,309.764160 164.710220,321.315704 
	C169.326172,324.547577 170.873611,328.880127 170.910706,334.124573 
	C170.936584,337.784607 171.139282,341.460663 170.870636,345.100616 
	C170.606049,348.685425 170.957855,351.771881 173.151016,354.928864 
	C175.727722,358.637970 174.400665,365.013885 171.009735,367.696289 
	C167.459213,370.504913 163.574554,370.448547 159.887558,367.998047 
	C156.254532,365.583496 154.503784,360.079803 157.197083,355.970856 
	C160.911072,350.304749 160.604218,344.344788 160.544281,338.240143 
	C160.482513,331.948608 153.703171,325.164307 146.754959,324.759247 
z"/>
<path fill="#000000" opacity="1.000000" stroke="none" 
	d="
M261.971008,319.946045 
	C272.228271,312.790680 282.282623,305.982910 291.169556,297.591858 
	C295.901123,293.124298 300.771027,288.854126 304.319458,283.316895 
	C306.365570,280.123962 309.152130,279.170898 312.376892,281.389313 
	C315.432953,283.491669 316.048401,286.455963 314.138763,289.688843 
	C313.216736,291.249847 312.125610,292.772156 310.850342,294.052185 
	C306.502838,298.415955 302.551117,303.434662 297.506409,306.785156 
	C288.861389,312.526825 287.350616,320.332062 288.200470,329.662048 
	C288.562012,333.631439 290.399597,335.462341 294.084442,335.600067 
	C298.242218,335.755463 302.411896,335.734009 306.572449,335.631195 
	C310.291870,335.539337 311.714325,337.833832 311.842712,340.920410 
	C311.978119,344.176147 310.275543,346.297180 306.721405,346.329468 
	C303.557526,346.358185 300.390472,346.416260 297.229797,346.310822 
	C294.131836,346.207520 291.447845,346.825806 288.870392,348.817596 
	C284.812347,351.953644 280.220154,351.664001 277.062042,348.575134 
	C273.712524,345.299042 272.858276,339.377899 275.984802,335.805267 
	C279.262360,332.059998 279.041351,328.419495 277.546417,324.310547 
	C269.344604,325.920807 264.270813,331.730865 264.277161,339.436005 
	C264.281891,345.178711 263.787109,350.775177 267.427979,356.152985 
	C269.845062,359.723236 268.767334,364.399139 265.251617,367.500061 
	C262.152832,370.233215 258.402985,369.953308 254.980774,368.061127 
	C250.663483,365.674011 249.229767,361.095673 251.114487,357.297455 
	C254.782715,349.904846 253.827927,342.294250 253.523514,334.799774 
	C253.240875,327.841431 255.956375,323.360870 261.971008,319.946045 
z"/>
<path fill="#000000" opacity="1.000000" stroke="none" 
	d="
M79.691360,128.839081 
	C67.271461,125.179321 60.197895,116.643272 60.130226,105.607353 
	C60.065041,94.976662 66.706169,85.536987 76.485809,82.359612 
	C91.951958,77.334702 107.865250,89.026802 107.319054,105.013962 
	C107.115715,110.965759 104.516785,114.295128 98.723572,115.414154 
	C95.559364,116.025352 93.828728,117.026825 95.033104,120.663635 
	C95.878822,123.217407 94.470978,125.055260 92.422279,126.576759 
	C88.668175,129.364807 84.518303,129.780350 79.691360,128.839081 
z"/>
<path fill="#000000" opacity="1.000000" stroke="none" 
	d="
M328.873260,325.408997 
	C331.664978,319.793762 336.524628,319.340118 341.406128,319.919678 
	C353.459595,321.350800 363.120453,331.846130 363.386169,343.360687 
	C363.665314,355.458435 354.764984,365.865051 342.305511,368.008942 
	C327.321655,370.587219 312.457642,353.450531 317.170349,339.019714 
	C318.224945,335.790466 320.312531,333.362701 323.677765,332.774689 
	C327.847260,332.046143 329.184967,329.667053 328.873260,325.408997 
z"/>
<path fill="#000000" opacity="1.000000" stroke="none" 
	d="
M328.496887,121.110199 
	C329.220459,117.634827 327.974304,116.197441 324.817780,115.738983 
	C319.398254,114.951859 317.011780,111.367828 316.444031,106.119957 
	C315.071686,93.435013 324.449005,82.733055 338.266876,81.367233 
	C349.826538,80.224609 362.213959,90.610825 363.290375,102.348183 
	C364.512482,115.674179 354.174866,128.008636 340.809692,129.171280 
	C333.813965,129.779846 329.578400,127.140312 328.496887,121.110199 
z"/>
<path fill="#000000" opacity="1.000000" stroke="none" 
	d="
M83.973740,368.226166 
	C60.953308,366.258636 54.836315,343.231506 65.871758,328.808655 
	C71.130371,321.935883 81.767998,318.107971 88.987556,320.529694 
	C92.850052,321.825348 95.551132,323.951782 94.633286,328.540924 
	C94.106117,331.176697 95.452217,332.065216 97.717079,332.650024 
	C105.170486,334.574493 108.092567,339.039093 106.993248,346.551117 
	C105.177727,358.957092 97.850220,365.986969 83.973740,368.226166 
z"/>
<path fill="#000000" opacity="1.000000" stroke="none" 
	d="
M84.030273,173.154205 
	C82.720909,173.159363 81.887405,173.153229 81.054375,173.170395 
	C74.411163,173.307175 74.411186,173.308533 74.291428,179.886459 
	C74.143135,188.030746 70.940170,192.949188 64.187645,195.401627 
	C58.421894,197.495697 51.761032,193.939835 50.040600,187.849289 
	C48.394295,182.021164 52.252586,175.553619 58.435738,174.936798 
	C62.001366,174.581085 62.665092,172.917877 63.264824,170.036255 
	C64.592705,163.656021 66.739075,161.983643 73.215332,161.808990 
	C76.878456,161.710175 80.547371,161.775742 84.212807,161.828156 
	C87.324615,161.872650 88.760223,160.496826 88.699295,157.293335 
	C88.594742,151.795731 88.805275,146.291229 88.659073,140.795593 
	C88.532433,136.034851 90.742737,133.494659 95.386520,133.374283 
	C99.865700,133.258179 104.361809,133.726761 108.837646,133.570602 
	C112.700920,133.435837 113.481163,131.627991 111.442421,128.415985 
	C108.451447,123.703758 108.760933,122.040535 113.041237,119.823746 
	C117.546043,117.490700 121.688995,118.720688 123.496201,122.927666 
	C128.283005,134.070816 121.841225,144.291031 109.980705,144.370667 
	C99.347168,144.442047 99.347313,144.442047 99.342590,155.034912 
	C99.341408,157.701447 99.355255,160.368103 99.333992,163.034470 
	C99.276649,170.224091 96.638939,172.949203 89.505829,173.163513 
	C87.840942,173.213547 86.172928,173.159744 84.030273,173.154205 
z"/>
<path fill="#000000" opacity="1.000000" stroke="none" 
	d="
M324.738708,153.132141 
	C324.734894,144.426361 324.734894,144.426956 316.375916,144.402328 
	C314.877472,144.397919 313.378784,144.398956 311.880585,144.375610 
	C303.962677,144.252289 300.914093,141.195328 300.609802,133.129059 
	C300.522034,130.801941 300.226990,128.475418 300.265289,126.152550 
	C300.314911,123.143005 301.382965,120.613632 304.405640,119.349289 
	C307.321869,118.129471 309.984467,118.695374 312.318390,120.683632 
	C314.797211,122.795341 315.528656,124.945374 313.132874,127.932129 
	C310.423676,131.309662 311.507782,133.387741 315.894592,133.616821 
	C320.046082,133.833618 324.220032,133.582260 328.378204,133.718307 
	C333.438324,133.883850 335.174957,135.697144 335.363739,140.749405 
	C335.568787,146.236862 335.829193,151.725525 335.863159,157.214905 
	C335.884216,160.622345 337.345245,162.022766 340.721954,161.879761 
	C344.545135,161.717850 348.386658,161.618835 352.205200,161.803055 
	C357.907990,162.078171 360.740173,164.723755 361.224823,170.424103 
	C361.454102,173.121292 361.886505,174.555191 365.101868,174.835846 
	C370.818512,175.334869 375.039398,181.468262 374.048981,187.041168 
	C373.037231,192.733826 367.122620,196.994339 361.551758,196.043396 
	C355.804993,195.062393 351.077209,189.843109 350.639893,183.997192 
	C349.846985,173.396881 349.846954,173.396896 339.498871,173.184357 
	C325.255066,172.891800 324.564575,172.188370 324.694000,158.103729 
	C324.707794,156.605286 324.720367,155.106857 324.738708,153.132141 
z"/>
<path fill="#000000" opacity="1.000000" stroke="none" 
	d="
M300.082458,319.933533 
	C301.309814,307.332214 303.837921,304.998444 315.996216,304.809753 
	C316.495575,304.802002 316.994995,304.796722 317.494324,304.787689 
	C324.657379,304.658325 324.657349,304.658173 324.687195,297.578033 
	C324.752930,281.983521 324.752838,281.982391 340.123444,281.188995 
	C341.287018,281.128937 342.469055,280.953491 343.613831,281.083710 
	C348.472961,281.636261 350.479858,279.543549 350.714813,274.650024 
	C351.055481,267.554901 355.615082,263.160461 361.699402,260.486816 
	C366.442871,258.402374 372.720245,262.171906 374.180695,267.470276 
	C375.697083,272.971527 372.136292,279.596161 366.739990,280.065308 
	C363.025482,280.388275 361.953918,282.093933 361.447113,285.204681 
	C360.654144,290.071503 357.636871,292.345459 352.744354,292.304352 
	C348.749481,292.270782 344.746429,292.475922 340.760773,292.286469 
	C336.993622,292.107391 335.735107,293.761841 335.915436,297.352661 
	C336.098755,301.002380 336.126373,304.690308 335.817932,308.327209 
	C335.360809,313.716614 332.855286,316.059601 327.445587,316.177490 
	C323.963776,316.253418 320.473358,315.737518 316.982513,315.639740 
	C311.724670,315.492432 310.630066,317.272400 313.151215,321.814301 
	C314.122925,323.564880 315.584198,325.213348 313.936249,327.243195 
	C312.148254,329.445557 309.830811,330.718628 306.929474,330.112671 
	C304.325012,329.568695 301.539703,329.004181 300.830994,325.797668 
	C300.437622,324.017822 300.326782,322.175507 300.082458,319.933533 
z"/>
<path fill="#000000" opacity="1.000000" stroke="none" 
	d="
M88.816818,311.379517 
	C88.707832,306.440582 88.470245,301.930389 88.720215,297.447357 
	C88.945061,293.414856 87.256683,292.102478 83.438828,292.313507 
	C79.617538,292.524689 75.774002,292.405853 71.942047,292.333954 
	C66.426125,292.230530 63.595566,289.982483 62.850117,284.484375 
	C62.477184,281.733795 61.896538,280.191589 58.735954,280.278839 
	C53.437618,280.425110 50.923573,276.886627 49.898968,272.359375 
	C48.968487,268.248077 49.597794,264.289856 53.784275,261.938721 
	C58.141155,259.491882 62.541573,259.433441 66.273621,262.939026 
	C70.052704,266.488800 73.520226,270.508575 73.745743,276.058533 
	C73.906898,280.024506 75.809990,281.113373 79.455261,281.059662 
	C83.607841,280.998505 87.766907,281.589935 91.924652,281.611938 
	C96.718803,281.637329 99.011681,284.127350 99.240501,288.622498 
	C99.443604,292.612366 99.415154,296.623260 99.281776,300.617950 
	C99.182549,303.589996 100.311852,304.937134 103.353264,304.784668 
	C106.013367,304.651276 108.685829,304.705322 111.351479,304.752869 
	C119.293526,304.894501 123.286232,308.522858 124.119698,316.411926 
	C124.419258,319.247437 124.029282,322.041473 123.473282,324.846710 
	C122.814987,328.168182 120.581528,329.593109 117.621872,330.153992 
	C115.004829,330.649963 112.616211,329.918457 110.823082,327.881470 
	C108.642128,325.403870 110.316284,323.351196 111.580528,321.132416 
	C113.660583,317.481903 112.392471,315.446198 108.107635,315.547852 
	C104.284370,315.638489 100.470505,316.109924 96.647072,316.213562 
	C93.261307,316.305389 90.446228,315.110168 88.816818,311.379517 
z"/>
<path fill="#000000" opacity="1.000000" stroke="none" 
	d="
M229.033844,76.062729 
	C227.948578,68.544296 230.241470,62.935368 235.831207,58.483776 
	C239.730606,55.378338 241.460358,51.751564 239.784332,46.291382 
	C237.733261,39.609379 241.704681,33.296013 247.739990,31.849506 
	C255.387863,30.016508 261.309906,33.201103 263.434113,40.289040 
	C265.462982,47.058903 262.204651,53.309940 255.279205,55.518929 
	C253.051941,56.229351 251.603668,57.265282 250.662643,59.512432 
	C249.272690,62.831604 246.121948,64.766617 243.592133,67.131294 
	C241.220795,69.347824 240.199783,71.782265 240.226227,75.036049 
	C240.333054,88.180809 240.280304,101.327232 240.221176,114.472755 
	C240.203018,118.506485 240.328735,122.974579 235.024628,123.836220 
	C231.614304,124.390228 228.911667,120.066948 228.908066,114.490036 
	C228.899918,101.843895 228.987564,89.197693 229.033844,76.062729 
z"/>
<path fill="#000000" opacity="1.000000" stroke="none" 
	d="
M183.722382,50.166412 
	C183.371567,54.326530 186.515762,56.048294 188.736328,58.012520 
	C193.624222,62.336147 195.473587,67.433128 195.328537,73.913422 
	C195.026810,87.391983 195.264160,100.882339 195.239227,114.367775 
	C195.236496,115.852356 195.206680,117.410759 194.771759,118.804596 
	C193.974197,121.360558 192.271454,123.265114 189.387268,123.203270 
	C186.404068,123.139313 185.155334,121.024078 184.529205,118.368874 
	C183.705933,114.877693 184.489395,111.410202 184.522690,107.930031 
	C184.627762,96.942696 184.617035,85.954056 184.599030,74.966003 
	C184.596893,73.653465 184.726746,71.990158 184.025787,71.086311 
	C179.538315,65.299934 174.999603,59.217960 168.653107,55.618793 
	C163.025223,52.427158 159.417404,47.046906 161.140564,40.635303 
	C162.967377,33.838100 169.193085,30.096849 176.117752,31.634983 
	C182.578339,33.070030 186.265167,38.640614 185.200119,45.550323 
	C184.975861,47.005264 184.310303,48.392189 183.722382,50.166412 
z"/>
<path fill="#000000" opacity="1.000000" stroke="none" 
	d="
M243.997772,373.914490 
	C247.405609,376.661774 250.579712,379.106720 251.236755,383.491852 
	C251.641235,386.191467 254.270172,385.710602 255.954208,386.456299 
	C262.816284,389.494904 265.752411,396.607758 262.601807,402.900360 
	C259.289551,409.515747 251.531982,412.181732 245.264084,408.858704 
	C240.099396,406.120514 237.360016,399.519043 239.643997,393.382843 
	C241.271622,389.010071 240.357010,385.957947 236.851196,383.420166 
	C230.275497,378.660156 228.277130,372.373199 228.821167,364.331116 
	C229.493439,354.393158 228.943970,344.375732 229.026733,334.393524 
	C229.078293,328.176941 231.209320,324.764526 234.749008,324.807037 
	C238.349487,324.850281 240.255417,328.161194 240.262115,334.415222 
	C240.273376,344.897400 240.350967,355.380371 240.238892,365.861298 
	C240.204117,369.112885 241.065536,371.733612 243.997772,373.914490 
z"/>
<path fill="#000000" opacity="1.000000" stroke="none" 
	d="
M195.218872,370.548157 
	C195.185303,375.314331 192.225143,377.928619 189.443024,380.516022 
	C185.176437,384.483978 182.601898,388.361298 185.202286,394.778473 
	C187.369583,400.126862 184.512299,405.538788 179.718155,408.383453 
	C174.836639,411.280060 169.030762,410.715240 164.926422,406.944397 
	C161.122955,403.450073 159.812057,397.028473 162.030121,392.248962 
	C162.581787,391.060242 163.240143,389.367432 164.234558,389.025177 
	C172.338684,386.235657 174.269028,377.213013 180.830643,372.891052 
	C183.847473,370.904022 184.759521,367.744843 184.650345,364.161804 
	C184.361603,354.685516 184.153732,345.205963 184.023453,335.726196 
	C183.994049,333.585938 184.179214,331.383240 184.682373,329.310425 
	C185.291245,326.802032 186.592010,324.455902 189.640564,324.570618 
	C192.742691,324.687317 194.308853,326.921661 194.977325,329.689941 
	C195.322540,331.119537 195.266556,332.663635 195.267151,334.156067 
	C195.271896,346.137573 195.246902,358.119080 195.218872,370.548157 
z"/>
<path fill="#000000" opacity="1.000000" stroke="none" 
	d="
M293.796631,56.202232 
	C306.382111,58.762421 312.098572,68.398842 307.685760,78.990700 
	C304.930328,85.604454 297.797577,90.033897 291.514069,89.033371 
	C283.529785,87.762009 277.664215,81.569420 276.836578,73.537560 
	C276.123260,66.615608 280.652710,59.649326 287.555420,57.320141 
	C289.421722,56.690392 291.447327,56.532700 293.796631,56.202232 
M298.690277,73.225418 
	C298.823578,69.600372 296.908325,67.608162 293.482391,67.182564 
	C290.644592,66.830032 288.686127,68.362320 287.753235,70.967331 
	C286.695526,73.920998 287.953552,76.336006 290.447906,77.734009 
	C294.656158,80.092590 296.820526,77.286156 298.690277,73.225418 
z"/>
<path fill="#000000" opacity="1.000000" stroke="none" 
	d="
M119.448990,61.487114 
	C124.867401,56.292034 130.824020,54.666641 137.554352,57.409271 
	C143.583618,59.866203 147.489914,66.169472 147.289856,72.964958 
	C147.075897,80.232567 143.232300,85.080154 136.699539,87.924728 
	C131.304184,90.274048 124.057693,88.592674 119.754654,84.055862 
	C115.007111,79.050400 113.756859,70.855286 116.923271,65.043167 
	C117.555511,63.882652 118.446335,62.863014 119.448990,61.487114 
M129.196609,67.445862 
	C126.491875,68.941086 124.796471,71.189827 125.722221,74.271324 
	C126.447128,76.684334 128.266724,78.573326 131.118164,78.616493 
	C133.713577,78.655792 135.449310,77.150101 136.424881,74.880707 
	C138.152420,70.862061 135.322403,67.581779 129.196609,67.445862 
z"/>
<path fill="#000000" opacity="1.000000" stroke="none" 
	d="
M123.746445,389.502045 
	C115.953712,383.912140 113.378342,376.309265 116.535141,368.994202 
	C119.526726,362.062012 127.323082,357.829498 134.380600,359.321777 
	C141.329147,360.791046 145.383041,365.355804 146.979538,371.967316 
	C148.468658,378.134186 146.462860,383.516571 141.630936,387.595490 
	C136.313416,392.084320 130.408478,393.036102 123.746445,389.502045 
M126.265900,376.929474 
	C127.447945,380.069885 129.285156,382.246460 132.999313,380.826904 
	C136.014374,379.674500 137.435608,377.322784 136.756958,374.107513 
	C136.172836,371.340057 134.062012,369.595886 131.418839,369.768433 
	C127.791634,370.005280 125.765572,372.292145 126.265900,376.929474 
z"/>
<path fill="#000000" opacity="1.000000" stroke="none" 
	d="
M286.140472,360.821167 
	C293.414642,357.812225 299.615051,358.955109 304.774933,364.363831 
	C309.437531,369.251312 310.338989,376.841461 306.955109,382.901215 
	C303.440918,389.194305 297.851318,391.889984 290.681549,391.349731 
	C284.666626,390.896515 279.709564,386.589722 277.565460,379.942017 
	C275.721832,374.225891 278.021423,366.664520 282.827972,362.834686 
	C283.733276,362.113373 284.796448,361.590118 286.140472,360.821167 
M293.237366,381.219513 
	C294.155853,380.838989 295.141968,380.569000 295.979797,380.056580 
	C298.218231,378.687469 299.230774,376.670044 298.361145,374.107544 
	C297.487640,371.533661 295.599335,369.717377 292.840302,369.802979 
	C290.078156,369.888641 288.091248,371.835266 287.630707,374.447754 
	C286.983215,378.120453 288.947723,380.430420 293.237366,381.219513 
z"/>
<path fill="#000000" opacity="1.000000" stroke="none" 
	d="
M43.870544,182.175873 
	C37.326530,185.382980 32.026779,185.026398 28.262980,181.352341 
	C24.008192,177.199005 22.898802,171.143539 25.408670,165.772354 
	C27.851851,160.543869 32.740429,158.003540 39.018314,158.700165 
	C44.012775,159.254395 47.987263,162.970215 49.613731,168.663467 
	C51.280518,174.497833 48.690575,178.625610 43.870544,182.175873 
z"/>
<path fill="#000000" opacity="1.000000" stroke="none" 
	d="
M382.796326,183.933105 
	C376.367798,180.202271 373.692993,175.225586 374.577118,169.059906 
	C375.303101,163.997009 377.931854,160.416565 383.033020,159.153351 
	C388.189819,157.876343 393.044800,158.528610 396.611420,162.865662 
	C399.975739,166.956757 401.356232,171.605820 398.900269,176.724548 
	C396.447632,181.836441 392.427155,184.565308 386.644287,184.389084 
	C385.489380,184.353882 384.338501,184.186096 382.796326,183.933105 
z"/>
<path fill="#000000" opacity="1.000000" stroke="none" 
	d="
M392.694763,296.247742 
	C385.326691,298.449799 380.382233,297.198090 377.170074,292.593201 
	C373.858368,287.845551 373.978607,282.381531 377.495728,277.793213 
	C380.710266,273.599609 386.705200,271.835938 391.831848,273.710632 
	C396.700867,275.491119 399.227722,279.290955 399.799133,284.225586 
	C400.428864,289.663391 397.283447,293.240479 392.694763,296.247742 
z"/>
<path fill="#000000" opacity="1.000000" stroke="none" 
	d="
M30.481491,275.275574 
	C37.604259,271.912750 42.631638,272.584259 46.598648,277.163757 
	C50.001537,281.092041 50.698154,287.530304 48.020260,291.551025 
	C45.093216,295.945831 41.005554,298.029724 35.660393,297.298737 
	C30.872221,296.643890 27.814369,293.903748 26.421793,289.350464 
	C24.780966,283.985474 25.360292,279.153717 30.481491,275.275574 
z"/>
<path fill="#000000" opacity="1.000000" stroke="none" 
	d="
M367.560120,131.847595 
	C377.157501,131.445938 382.617767,137.371429 379.575897,144.518295 
	C377.746002,148.817642 374.537933,151.659805 369.566010,151.164017 
	C364.880707,150.696823 362.232452,147.604111 361.122589,143.202240 
	C360.008636,138.784073 362.284332,134.657364 367.560120,131.847595 
z"/>
<path fill="#000000" opacity="1.000000" stroke="none" 
	d="
M44.380760,145.039032 
	C42.925961,139.728271 43.543995,135.163849 48.349922,132.612564 
	C51.988239,130.681122 56.112431,130.674210 59.476627,133.661331 
	C62.337646,136.201675 64.044411,139.368790 62.878765,143.383286 
	C61.665039,147.563370 58.898483,150.385910 54.620445,151.034180 
	C50.031990,151.729477 46.662533,149.521317 44.380760,145.039032 
z"/>
<path fill="#000000" opacity="1.000000" stroke="none" 
	d="
M379.349976,308.131714 
	C379.323029,315.013123 377.121002,318.533905 372.532990,319.230927 
	C366.850433,320.094208 362.888397,317.437958 361.419739,311.780304 
	C360.030945,306.430359 363.138458,301.486511 368.727600,300.154083 
	C373.523315,299.010803 378.237793,302.399445 379.349976,308.131714 
z"/>
<path fill="#000000" opacity="1.000000" stroke="none" 
	d="
M62.377422,312.151917 
	C60.393749,317.216095 57.212883,319.943817 51.897057,319.222260 
	C47.542503,318.631165 45.205032,315.792694 44.187889,311.737488 
	C43.076946,307.308319 44.651066,303.850922 48.366379,301.390198 
	C51.400887,299.380341 54.728184,299.043793 57.764961,301.158936 
	C61.374653,303.673157 63.721989,306.998260 62.377422,312.151917 
M58.119705,310.988770 
	C58.584240,307.665985 56.428665,306.610474 53.780624,306.187927 
	C52.087234,305.917694 50.363720,306.185760 49.507446,307.966888 
	C48.716621,309.611847 48.906994,311.319275 50.320629,312.517334 
	C52.559250,314.414642 54.889889,314.053131 57.096188,312.317078 
	C57.353298,312.114777 57.551414,311.837494 58.119705,310.988770 
z"/>
<path fill="#000000" opacity="1.000000" stroke="none" 
	d="
M168.899048,267.097351 
	C141.642792,237.619476 145.670151,195.031906 178.676331,173.849060 
	C216.858719,149.344193 267.381104,169.538101 274.004578,216.399551 
	C279.489105,255.203003 245.101929,289.116211 205.908066,284.532562 
	C191.652451,282.865417 179.334671,277.506195 168.899048,267.097351 
M193.380447,224.250031 
	C194.268616,224.697662 195.128922,225.215179 196.049271,225.582047 
	C204.698563,229.029449 213.553543,224.885284 216.880173,215.856186 
	C219.731674,208.116684 215.287811,199.090637 207.190781,196.175797 
	C200.368393,193.719803 192.509964,196.557846 188.581223,202.896530 
	C184.389389,209.659683 185.948410,217.429703 193.380447,224.250031 
M173.864929,194.368347 
	C173.174927,195.307388 172.464523,196.232208 171.798416,197.187897 
	C168.833023,201.442535 166.348373,205.958542 164.711884,210.890106 
	C163.886917,213.376144 163.494995,216.133881 166.507706,217.322006 
	C169.597198,218.540436 170.397125,215.670120 171.441360,213.672791 
	C172.054291,212.500366 172.409836,211.195404 172.910812,209.962112 
	C175.713043,203.063644 179.867401,197.117065 185.375870,192.094406 
	C187.365585,190.280136 188.789978,188.086029 186.490768,185.638458 
	C183.776794,182.749359 181.993713,185.569061 180.327759,187.151398 
	C178.163376,189.207169 176.292831,191.572281 173.864929,194.368347 
z"/>
</svg>